<svg width="24" height="24" viewBox="0 0 24 24" fill="none" xmlns="http://www.w3.org/2000/svg">
<path d="M6 11L6 4C6 3.44772 6.44772 3 7 3L14.5631 3C14.8416 3 15.1076 3.11619 15.2968 3.32059L19.7338 8.11246C19.9049 8.29731 20 8.53995 20 8.79187V20C20 20.5523 19.5523 21 19 21H13" stroke="#14181F" stroke-width="2" stroke-linecap="round" stroke-linejoin="round"/>
<path d="M4 21H6.5L14 13.5L11.5 11L4 18.5V21Z" stroke="#14181F" stroke-width="2" stroke-linecap="round" stroke-linejoin="round"/>
<path d="M9 14L11 16" stroke="#14181F" stroke-width="2" stroke-linecap="round" stroke-linejoin="round"/>
<path d="M20 9L15 9C14.4477 9 14 8.55228 14 8L14 3" stroke="#14181F" stroke-width="2" stroke-linecap="round" stroke-linejoin="round"/>
</svg>
